<svg xmlns="http://www.w3.org/2000/svg" viewBox="0 0 310 64" width="620" height="128" fill="none">
  <!-- Steam Clouds Above Chimneys -->
  <path
    d="M13 14 C13 9 18 7 22 9 C25 6 29 6 32 9 C35 9 38 12 38 15 C38 18 35 20 32 20 H16 C13 20 11 18 11 16 C11 15 12 14 13 14 Z"
    fill="#94A3B8"
    opacity="0.85"
  />
  <path
    d="M26 9 C26 6 29 4 33 6 C35 4 38 4 41 6 C43 6 45 8 45 11 C45 13 43 15 40 15 H30 C27 15 25 13 25 11 C25 10 26 9 26 9 Z"
    fill="#CBD5E1"
    opacity="0.65"
  />

  <!-- Chimney / Smokestack with Yellow Top Cap -->
  <path
    d="M14 50 L17 23 H25 L27 50 Z"
    fill="#122B5A"
  />
  <rect
    x="15.5"
    y="21"
    width="11"
    height="3"
    rx="1"
    fill="#FFB800"
  />

  <!-- Industrial Power Station Factory with Sawtooth Roofs -->
  <path
    d="M25 50 V31 L37 20 V31 L49 20 V31 L61 20 V50 H25 Z"
    fill="#122B5A"
  />

  <!-- High-Tech Windows / Power Grid Accents -->
  <rect x="31" y="37" width="4.5" height="7" rx="0.5" fill="#FFB800" />
  <rect x="40" y="37" width="4.5" height="7" rx="0.5" fill="#FFB800" />
  <rect x="49" y="37" width="4.5" height="7" rx="0.5" fill="#FFB800" />

  <!-- Foundation Base Line -->
  <rect
    x="10"
    y="50"
    width="54"
    height="4"
    rx="1.5"
    fill="#122B5A"
  />

  <!-- 'DOORSTEP' Brand Name -->
  <text
    x="74"
    y="37"
    font-family="system-ui, -apple-system, BlinkMacSystemFont, 'Segoe UI', Roboto, 'Poppins', sans-serif"
    font-size="35"
    font-weight="900"
    letter-spacing="-0.5px"
    fill="#122B5A"
  >DOORSTEP</text>

  <!-- 'POWER SOLUTION' Subtitle -->
  <text
    x="75"
    y="52"
    font-family="system-ui, -apple-system, BlinkMacSystemFont, 'Segoe UI', Roboto, 'Poppins', sans-serif"
    font-size="12.5"
    font-weight="700"
    letter-spacing="2.5px"
    fill="#64748B"
  >POWER SOLUTION</text>
</svg>